<?xml version="1.0" encoding="utf-8"?>
<!-- Generator: Adobe Illustrator 15.0.0, SVG Export Plug-In . SVG Version: 6.00 Build 0)  -->
<!DOCTYPE svg PUBLIC "-//W3C//DTD SVG 1.1//EN" "http://www.w3.org/Graphics/SVG/1.1/DTD/svg11.dtd">
<svg version="1.1" id="Layer_1" xmlns="http://www.w3.org/2000/svg" xmlns:xlink="http://www.w3.org/1999/xlink" x="0px" y="0px"
	 width="45px" height="45px" viewBox="0 0 45 45" enable-background="new 0 0 45 45" xml:space="preserve">
<g>
	<path fill="#F7C883" d="M11.842,17.741c0.697-0.272,1.293-0.652,1.789-1.14c0.495-0.487,0.879-1.065,1.151-1.732
		s0.409-1.396,0.409-2.186c0-0.785-0.136-1.511-0.409-2.179c-0.272-0.667-0.656-1.244-1.151-1.729s-1.091-0.865-1.789-1.14
		c-0.698-0.275-1.471-0.413-2.321-0.413H5.276V18.15h4.245C10.371,18.15,11.145,18.014,11.842,17.741z M7.826,9.172h1.695
		c0.485,0,0.917,0.082,1.297,0.244c0.38,0.163,0.701,0.395,0.964,0.698c0.263,0.302,0.464,0.671,0.604,1.106
		c0.14,0.435,0.21,0.923,0.21,1.463c0,0.545-0.07,1.035-0.21,1.47c-0.14,0.435-0.341,0.804-0.604,1.106
		c-0.263,0.302-0.584,0.535-0.964,0.697c-0.38,0.163-0.812,0.244-1.297,0.244H7.826V9.172z"/>
	<path fill="#F7C883" d="M17.399,16.661c0.498,0.502,1.096,0.896,1.796,1.181c0.7,0.285,1.475,0.428,2.325,0.428
		c0.85,0,1.625-0.143,2.322-0.428c0.697-0.285,1.293-0.679,1.789-1.181c0.494-0.502,0.879-1.094,1.15-1.774
		c0.273-0.68,0.408-1.415,0.408-2.205c0-0.785-0.135-1.518-0.408-2.198c-0.271-0.68-0.656-1.27-1.15-1.77
		c-0.496-0.5-1.092-0.894-1.789-1.181s-1.472-0.431-2.322-0.431c-0.85,0-1.625,0.143-2.325,0.427
		c-0.7,0.285-1.299,0.678-1.796,1.178s-0.882,1.09-1.155,1.77c-0.272,0.68-0.409,1.415-0.409,2.205s0.136,1.525,0.409,2.205
		C16.517,15.567,16.902,16.159,17.399,16.661z M18.641,11.224c0.14-0.433,0.341-0.799,0.604-1.099c0.263-0.3,0.585-0.53,0.967-0.69
		c0.383-0.16,0.819-0.24,1.309-0.24c0.485,0,0.917,0.08,1.297,0.24s0.702,0.39,0.964,0.69c0.264,0.3,0.465,0.666,0.604,1.099
		c0.141,0.433,0.211,0.919,0.211,1.459c0,0.545-0.07,1.034-0.211,1.466c-0.139,0.433-0.34,0.799-0.604,1.099
		c-0.262,0.3-0.584,0.529-0.964,0.686c-0.38,0.158-0.812,0.236-1.297,0.236c-0.49,0-0.926-0.079-1.309-0.236
		c-0.382-0.157-0.705-0.386-0.967-0.686c-0.263-0.3-0.464-0.667-0.604-1.099c-0.14-0.432-0.21-0.921-0.21-1.466
		C18.431,12.143,18.501,11.656,18.641,11.224z"/>
	<path fill="#F7C883" d="M30.642,11.865c0-0.145-0.006-0.304-0.016-0.476s-0.025-0.346-0.045-0.521l2.91,5.625
		c0.09,0.175,0.211,0.308,0.363,0.398c0.152,0.09,0.326,0.135,0.521,0.135h0.346c0.195,0,0.369-0.045,0.521-0.135
		c0.152-0.09,0.273-0.223,0.363-0.398l2.895-5.617c-0.029,0.355-0.045,0.685-0.045,0.99v6.285h2.234V7.23h-1.934
		c-0.111,0-0.207,0-0.289,0s-0.156,0.013-0.221,0.038c-0.066,0.025-0.125,0.064-0.178,0.116c-0.051,0.053-0.104,0.126-0.152,0.222
		l-2.805,5.526c-0.102,0.195-0.199,0.396-0.293,0.604c-0.096,0.208-0.186,0.422-0.27,0.642c-0.086-0.215-0.174-0.425-0.268-0.631
		c-0.092-0.205-0.188-0.403-0.289-0.593l-2.812-5.548c-0.049-0.095-0.1-0.169-0.152-0.222c-0.053-0.052-0.111-0.091-0.178-0.116
		C30.786,7.243,30.712,7.23,30.63,7.23s-0.178,0-0.289,0h-1.934v10.92h2.234V11.865z"/>
	<polygon fill="#F7C883" points="6.911,36.15 9.461,36.15 9.461,31.897 13.196,31.897 13.196,29.94 9.461,29.94 9.461,27.173 
		13.946,27.173 13.946,25.223 6.911,25.223 	"/>
	<polygon fill="#F7C883" points="15.266,36.15 22.301,36.15 22.301,34.2 17.816,34.2 17.816,31.598 21.251,31.598 21.251,29.723 
		17.816,29.723 17.816,27.173 22.301,27.173 22.301,25.223 15.266,25.223 	"/>
	<path fill="#F7C883" d="M29.851,30.66c-0.229-0.225-0.488-0.41-0.781-0.555c-0.291-0.146-0.59-0.271-0.896-0.379
		c-0.305-0.107-0.604-0.205-0.895-0.292c-0.293-0.088-0.553-0.185-0.781-0.289c-0.227-0.105-0.41-0.23-0.551-0.375
		c-0.141-0.146-0.211-0.327-0.211-0.548c0-0.345,0.117-0.618,0.35-0.821c0.232-0.202,0.586-0.304,1.061-0.304
		c0.275,0,0.521,0.036,0.736,0.109c0.215,0.072,0.406,0.153,0.572,0.243c0.168,0.09,0.318,0.172,0.451,0.244
		s0.256,0.108,0.371,0.108c0.131,0,0.236-0.03,0.318-0.09s0.162-0.15,0.236-0.27l0.631-1.178c-0.195-0.181-0.416-0.342-0.664-0.484
		s-0.514-0.265-0.799-0.367s-0.586-0.18-0.904-0.232c-0.316-0.053-0.643-0.079-0.979-0.079c-0.6,0-1.133,0.092-1.598,0.274
		s-0.857,0.426-1.178,0.73c-0.32,0.306-0.562,0.653-0.727,1.043c-0.166,0.39-0.248,0.79-0.248,1.2c0,0.51,0.07,0.938,0.209,1.286
		c0.141,0.348,0.324,0.638,0.553,0.87c0.227,0.232,0.486,0.42,0.775,0.562c0.291,0.143,0.588,0.263,0.893,0.359
		c0.305,0.098,0.604,0.187,0.893,0.267c0.291,0.08,0.549,0.173,0.777,0.277c0.227,0.105,0.41,0.237,0.551,0.397
		c0.139,0.16,0.209,0.368,0.209,0.623c0,0.439-0.127,0.761-0.381,0.964c-0.256,0.202-0.613,0.304-1.074,0.304
		c-0.34,0-0.635-0.048-0.885-0.143s-0.471-0.2-0.664-0.315c-0.191-0.115-0.363-0.22-0.518-0.314
		c-0.152-0.096-0.303-0.143-0.453-0.143c-0.115,0-0.223,0.027-0.322,0.082c-0.1,0.056-0.178,0.128-0.232,0.218l-0.75,1.185
		c0.215,0.216,0.467,0.41,0.758,0.585c0.289,0.176,0.6,0.326,0.93,0.454s0.672,0.227,1.023,0.296
		c0.354,0.07,0.699,0.105,1.039,0.105c0.619,0,1.174-0.094,1.662-0.281c0.486-0.188,0.896-0.445,1.229-0.772
		c0.334-0.327,0.586-0.711,0.762-1.151s0.262-0.912,0.262-1.418c0-0.454-0.068-0.844-0.209-1.166S30.077,30.886,29.851,30.66z"/>
	<polygon fill="#F7C883" points="31.122,27.232 34.196,27.232 34.196,36.15 36.731,36.15 36.731,27.232 39.806,27.232 
		39.806,25.223 31.122,25.223 	"/>
	<path fill="#F7C883" d="M40.915,20.95H4.089c-0.276,0-0.5,0.224-0.5,0.5s0.224,0.5,0.5,0.5h36.826c0.275,0,0.5-0.224,0.5-0.5
		S41.19,20.95,40.915,20.95z"/>
</g>
<g>
	<linearGradient id="SVGID_1_" gradientUnits="userSpaceOnUse" x1="10.2339" y1="6.9956" x2="10.2339" y2="37.2637">
		<stop  offset="0" style="stop-color:#6E260D"/>
		<stop  offset="1" style="stop-color:#2B0D0E"/>
	</linearGradient>
	<path fill="url(#SVGID_1_)" d="M11.843,17.387c0.697-0.272,1.293-0.652,1.789-1.14c0.495-0.487,0.879-1.065,1.151-1.732
		s0.409-1.396,0.409-2.186c0-0.785-0.136-1.511-0.409-2.179c-0.272-0.667-0.656-1.244-1.151-1.729s-1.091-0.865-1.789-1.14
		c-0.698-0.275-1.471-0.413-2.321-0.413H5.276v10.928h4.245C10.372,17.795,11.145,17.659,11.843,17.387z M7.827,8.818h1.695
		c0.485,0,0.917,0.082,1.297,0.244c0.38,0.163,0.701,0.395,0.964,0.698c0.263,0.302,0.464,0.671,0.604,1.106
		c0.14,0.435,0.21,0.923,0.21,1.463c0,0.545-0.07,1.035-0.21,1.47c-0.14,0.435-0.341,0.804-0.604,1.106
		c-0.263,0.302-0.584,0.535-0.964,0.697c-0.38,0.163-0.812,0.244-1.297,0.244H7.827V8.818z"/>
	<linearGradient id="SVGID_2_" gradientUnits="userSpaceOnUse" x1="21.5132" y1="6.9956" x2="21.5132" y2="37.2637">
		<stop  offset="0" style="stop-color:#6E260D"/>
		<stop  offset="1" style="stop-color:#2B0D0E"/>
	</linearGradient>
	<path fill="url(#SVGID_2_)" d="M17.4,16.307c0.498,0.502,1.096,0.896,1.796,1.181c0.7,0.285,1.475,0.428,2.325,0.428
		c0.85,0,1.623-0.143,2.32-0.428c0.698-0.285,1.294-0.679,1.789-1.181s0.879-1.094,1.151-1.774c0.272-0.68,0.408-1.415,0.408-2.205
		c0-0.785-0.136-1.518-0.408-2.198c-0.272-0.68-0.656-1.27-1.151-1.77s-1.091-0.894-1.789-1.181
		c-0.697-0.288-1.471-0.431-2.32-0.431c-0.85,0-1.625,0.143-2.325,0.427c-0.7,0.285-1.299,0.678-1.796,1.178s-0.882,1.09-1.155,1.77
		c-0.272,0.68-0.409,1.415-0.409,2.205s0.136,1.525,0.409,2.205C16.518,15.213,16.902,15.804,17.4,16.307z M18.641,10.869
		c0.14-0.433,0.341-0.799,0.604-1.099c0.263-0.3,0.585-0.53,0.967-0.69c0.383-0.16,0.819-0.24,1.309-0.24
		c0.485,0,0.917,0.08,1.297,0.24c0.379,0.16,0.701,0.39,0.963,0.69c0.263,0.3,0.464,0.666,0.604,1.099s0.21,0.919,0.21,1.459
		c0,0.545-0.07,1.034-0.21,1.466c-0.14,0.433-0.341,0.799-0.604,1.099c-0.263,0.3-0.584,0.529-0.963,0.686
		c-0.38,0.158-0.812,0.236-1.297,0.236c-0.49,0-0.926-0.079-1.309-0.236c-0.382-0.157-0.705-0.386-0.967-0.686
		c-0.263-0.3-0.464-0.667-0.604-1.099c-0.14-0.432-0.21-0.921-0.21-1.466C18.431,11.788,18.501,11.302,18.641,10.869z"/>
	<linearGradient id="SVGID_3_" gradientUnits="userSpaceOnUse" x1="34.5488" y1="6.9956" x2="34.5488" y2="37.2637">
		<stop  offset="0" style="stop-color:#6E260D"/>
		<stop  offset="1" style="stop-color:#2B0D0E"/>
	</linearGradient>
	<path fill="url(#SVGID_3_)" d="M30.641,11.51c0-0.145-0.005-0.304-0.015-0.476s-0.025-0.346-0.045-0.521l2.91,5.625
		c0.09,0.175,0.211,0.308,0.363,0.398c0.152,0.09,0.326,0.135,0.521,0.135h0.345c0.195,0,0.369-0.045,0.521-0.135
		c0.152-0.09,0.273-0.223,0.363-0.398l2.896-5.617c-0.03,0.355-0.045,0.685-0.045,0.99v6.285h2.234V6.875h-1.935
		c-0.11,0-0.206,0-0.289,0c-0.082,0-0.156,0.013-0.221,0.038c-0.065,0.025-0.124,0.064-0.177,0.116
		c-0.052,0.053-0.104,0.126-0.153,0.222l-2.805,5.526c-0.101,0.195-0.198,0.396-0.293,0.604c-0.095,0.208-0.185,0.422-0.27,0.642
		c-0.086-0.215-0.174-0.425-0.267-0.631c-0.093-0.205-0.188-0.403-0.289-0.593l-2.812-5.548c-0.05-0.095-0.101-0.169-0.153-0.222
		c-0.053-0.052-0.111-0.091-0.177-0.116c-0.064-0.025-0.139-0.038-0.221-0.038c-0.083,0-0.179,0-0.289,0h-1.935v10.92h2.234V11.51z"
		/>
	<linearGradient id="SVGID_4_" gradientUnits="userSpaceOnUse" x1="10.4292" y1="6.9956" x2="10.4292" y2="37.2637">
		<stop  offset="0" style="stop-color:#6E260D"/>
		<stop  offset="1" style="stop-color:#2B0D0E"/>
	</linearGradient>
	<polygon fill="url(#SVGID_4_)" points="6.912,35.796 9.462,35.796 9.462,31.543 13.197,31.543 13.197,29.586 9.462,29.586 
		9.462,26.818 13.947,26.818 13.947,24.868 6.912,24.868 	"/>
	<linearGradient id="SVGID_5_" gradientUnits="userSpaceOnUse" x1="18.7842" y1="6.9956" x2="18.7842" y2="37.2637">
		<stop  offset="0" style="stop-color:#6E260D"/>
		<stop  offset="1" style="stop-color:#2B0D0E"/>
	</linearGradient>
	<polygon fill="url(#SVGID_5_)" points="15.267,35.796 22.302,35.796 22.302,33.846 17.817,33.846 17.817,31.243 21.251,31.243 
		21.251,29.368 17.817,29.368 17.817,26.818 22.302,26.818 22.302,24.868 15.267,24.868 	"/>
	<linearGradient id="SVGID_6_" gradientUnits="userSpaceOnUse" x1="26.7783" y1="6.9956" x2="26.7783" y2="37.2637">
		<stop  offset="0" style="stop-color:#6E260D"/>
		<stop  offset="1" style="stop-color:#2B0D0E"/>
	</linearGradient>
	<path fill="url(#SVGID_6_)" d="M29.85,30.306c-0.228-0.225-0.487-0.41-0.78-0.555c-0.292-0.146-0.591-0.271-0.896-0.379
		c-0.305-0.107-0.604-0.205-0.896-0.292c-0.293-0.088-0.553-0.185-0.78-0.289c-0.228-0.105-0.411-0.23-0.551-0.375
		c-0.141-0.146-0.211-0.327-0.211-0.548c0-0.345,0.117-0.618,0.35-0.821c0.232-0.202,0.586-0.304,1.061-0.304
		c0.275,0,0.521,0.036,0.735,0.109c0.215,0.072,0.406,0.153,0.573,0.243c0.168,0.09,0.318,0.172,0.45,0.244
		c0.133,0.072,0.257,0.108,0.371,0.108c0.131,0,0.236-0.03,0.319-0.09c0.082-0.06,0.161-0.15,0.236-0.27l0.63-1.178
		c-0.195-0.181-0.416-0.342-0.664-0.484c-0.247-0.143-0.514-0.265-0.799-0.367s-0.586-0.18-0.903-0.232s-0.644-0.079-0.979-0.079
		c-0.601,0-1.133,0.092-1.598,0.274s-0.857,0.426-1.178,0.73c-0.32,0.306-0.562,0.653-0.728,1.043s-0.247,0.79-0.247,1.2
		c0,0.51,0.069,0.938,0.209,1.286c0.141,0.348,0.324,0.638,0.552,0.87s0.486,0.42,0.776,0.562s0.588,0.263,0.893,0.359
		c0.305,0.098,0.603,0.187,0.893,0.267s0.549,0.173,0.776,0.277c0.228,0.105,0.411,0.237,0.551,0.397s0.21,0.368,0.21,0.623
		c0,0.439-0.127,0.761-0.382,0.964c-0.256,0.202-0.613,0.304-1.073,0.304c-0.34,0-0.635-0.048-0.885-0.143s-0.472-0.2-0.664-0.315
		s-0.364-0.22-0.518-0.314c-0.152-0.096-0.304-0.143-0.453-0.143c-0.115,0-0.223,0.027-0.322,0.082
		c-0.101,0.056-0.178,0.128-0.232,0.218l-0.75,1.185c0.215,0.216,0.467,0.41,0.757,0.585c0.29,0.176,0.601,0.326,0.931,0.454
		c0.329,0.128,0.671,0.227,1.023,0.296c0.353,0.07,0.698,0.105,1.039,0.105c0.619,0,1.173-0.094,1.661-0.281
		c0.487-0.188,0.897-0.445,1.229-0.772c0.333-0.327,0.586-0.711,0.762-1.151c0.175-0.44,0.262-0.912,0.262-1.418
		c0-0.454-0.069-0.844-0.21-1.166C30.261,30.805,30.077,30.531,29.85,30.306z"/>
	<linearGradient id="SVGID_7_" gradientUnits="userSpaceOnUse" x1="35.4629" y1="6.9956" x2="35.4629" y2="37.2637">
		<stop  offset="0" style="stop-color:#6E260D"/>
		<stop  offset="1" style="stop-color:#2B0D0E"/>
	</linearGradient>
	<polygon fill="url(#SVGID_7_)" points="31.121,26.878 34.195,26.878 34.195,35.796 36.73,35.796 36.73,26.878 39.806,26.878 
		39.806,24.868 31.121,24.868 	"/>
	<linearGradient id="SVGID_8_" gradientUnits="userSpaceOnUse" x1="22.5015" y1="6.9956" x2="22.5015" y2="37.2637">
		<stop  offset="0" style="stop-color:#6E260D"/>
		<stop  offset="1" style="stop-color:#2B0D0E"/>
	</linearGradient>
	<path fill="url(#SVGID_8_)" d="M40.914,20.595H4.089c-0.276,0-0.5,0.224-0.5,0.5s0.224,0.5,0.5,0.5h36.825
		c0.276,0,0.5-0.224,0.5-0.5S41.19,20.595,40.914,20.595z"/>
</g>
</svg>
