<?xml version="1.0" encoding="utf-8"?>
<!-- Generator: Adobe Illustrator 15.0.0, SVG Export Plug-In . SVG Version: 6.00 Build 0)  -->
<!DOCTYPE svg PUBLIC "-//W3C//DTD SVG 1.1//EN" "http://www.w3.org/Graphics/SVG/1.1/DTD/svg11.dtd">
<svg version="1.1" id="Layer_1" xmlns="http://www.w3.org/2000/svg" xmlns:xlink="http://www.w3.org/1999/xlink" x="0px" y="0px"
	 width="280px" height="70px" viewBox="0 0 280 70" enable-background="new 0 0 280 70" xml:space="preserve">
<g>
	<linearGradient id="SVGID_1_" gradientUnits="userSpaceOnUse" x1="25.2905" y1="-36" x2="25.2905" y2="57.086">
		<stop  offset="0" style="stop-color:#585858"/>
		<stop  offset="1" style="stop-color:#000000"/>
	</linearGradient>
	<path fill="url(#SVGID_1_)" d="M31.292,22.359l-9.876,35.232H9.413l9.876-35.232H31.292z M12.637,21.54l2.777-9.832h25.753
		l-2.812,9.832H12.637z"/>
	<linearGradient id="SVGID_2_" gradientUnits="userSpaceOnUse" x1="49.312" y1="-36" x2="49.312" y2="57.086">
		<stop  offset="0" style="stop-color:#585858"/>
		<stop  offset="1" style="stop-color:#000000"/>
	</linearGradient>
	<path fill="url(#SVGID_2_)" d="M44.631,54.314l-0.892,3.277H31.737l0.892-3.277L53.17,11.708h12.002L44.631,54.314z M50.632,43.663
		h1.714l0.343-4.261l13.339-27.694h0.857l-3.395,42.606L62.6,57.592H50.598l0.892-3.277l0.206-2.458h-5.007L50.632,43.663z"/>
	<linearGradient id="SVGID_3_" gradientUnits="userSpaceOnUse" x1="87.9419" y1="-36" x2="87.9419" y2="57.086">
		<stop  offset="0" style="stop-color:#585858"/>
		<stop  offset="1" style="stop-color:#000000"/>
	</linearGradient>
	<path fill="url(#SVGID_3_)" d="M84.89,40.778l-3.189,3.704l-2.777,9.832H66.921l2.778-9.832L81.77,30.455L84.89,40.778z
		 M94.389,29.734l4.458,14.749l-2.777,9.832H84.067l2.778-9.832l-1.337-4.425l-3.121-10.324l-4.424-14.749l1.852-6.555h12.002
		l-1.852,6.555l1.337,4.425L94.389,29.734z M91.954,18.656l3.155-3.671l1.852-6.555h12.002l-1.852,6.555L95.075,28.98L91.954,18.656
		z"/>
	<linearGradient id="SVGID_4_" gradientUnits="userSpaceOnUse" x1="111.4839" y1="-36" x2="111.4839" y2="57.086">
		<stop  offset="0" style="stop-color:#585858"/>
		<stop  offset="1" style="stop-color:#000000"/>
	</linearGradient>
	<path fill="url(#SVGID_4_)" d="M111.912,10.069h12.002l-12.859,45.884H99.053L111.912,10.069z"/>
	<linearGradient id="SVGID_5_" gradientUnits="userSpaceOnUse" x1="153.8975" y1="-36" x2="153.8975" y2="57.086">
		<stop  offset="0" style="stop-color:#585858"/>
		<stop  offset="1" style="stop-color:#000000"/>
	</linearGradient>
	<path fill="url(#SVGID_5_)" d="M157.842,28.095l2.297-8.194h-5.145l-7.371,26.22h4.285l-2.742,9.832h-7.717l-6.721-6.555
		l9.19-32.774l10.391-6.555h12.002l6.756,6.555l-3.223,11.471H157.842z M167.066,37.928l-3.189,11.471l-10.426,6.555h-3.428
		l5.041-18.025H167.066z"/>
	<linearGradient id="SVGID_6_" gradientUnits="userSpaceOnUse" x1="182.584" y1="-36" x2="182.584" y2="57.086">
		<stop  offset="0" style="stop-color:#585858"/>
		<stop  offset="1" style="stop-color:#000000"/>
	</linearGradient>
	<path fill="url(#SVGID_6_)" d="M177.902,54.314l-0.892,3.277h-12.002l0.891-3.277l20.541-42.606h12.003L177.902,54.314z
		 M183.903,43.663h1.715l0.343-4.261l13.34-27.694h0.857l-3.396,42.606l-0.892,3.277h-12.002l0.892-3.277l0.206-2.458h-5.007
		L183.903,43.663z"/>
	<linearGradient id="SVGID_7_" gradientUnits="userSpaceOnUse" x1="220.7676" y1="-36" x2="220.7676" y2="57.086">
		<stop  offset="0" style="stop-color:#585858"/>
		<stop  offset="1" style="stop-color:#000000"/>
	</linearGradient>
	<path fill="url(#SVGID_7_)" d="M215.418,42.844l-0.926,3.277h17.146l-0.857,3.277l-10.459,6.555h-12.002l-6.722-6.555l1.817-6.555
		H215.418z M221.624,20.721l-2.057,7.375l8.093,1.639l6.755,6.555l-2.537,9.013h-12.002l2.058-7.374l-8.094-1.639l-6.755-6.555
		l2.537-9.013H221.624z M209.862,19.901l0.926-3.277l10.391-6.555h12.002l6.756,6.555l-2.298,8.194h-12.002l1.372-4.917H209.862z"/>
	<linearGradient id="SVGID_8_" gradientUnits="userSpaceOnUse" x1="252.8828" y1="-36" x2="252.8828" y2="57.086">
		<stop  offset="0" style="stop-color:#585858"/>
		<stop  offset="1" style="stop-color:#000000"/>
	</linearGradient>
	<path fill="url(#SVGID_8_)" d="M248.922,39.566l-5.041,18.025h-12.002l5.04-18.025H248.922z M253.448,38.747h-16.289l7.579-27.039
		h12.002l-5.281,18.845h4.287L253.448,38.747z M261.884,11.708h12.003l-12.86,45.884h-12.002L261.884,11.708z"/>
</g>
</svg>
