<?xml version="1.0" encoding="utf-8"?>
<!-- Generator: Adobe Illustrator 15.0.0, SVG Export Plug-In . SVG Version: 6.00 Build 0)  -->
<!DOCTYPE svg PUBLIC "-//W3C//DTD SVG 1.1//EN" "http://www.w3.org/Graphics/SVG/1.1/DTD/svg11.dtd">
<svg version="1.1" id="Layer_1" xmlns="http://www.w3.org/2000/svg" xmlns:xlink="http://www.w3.org/1999/xlink" x="0px" y="0px"
	 width="45px" height="45px" viewBox="0 0 45 45" enable-background="new 0 0 45 45" xml:space="preserve">
<g id="yDHJDw_1_">
	<path fill="#F7C883" d="M41.255,29.797c-2.562,1.495-5.374,2.334-8.356,2.493c-10.234,0.549-19.007-7.331-19.557-17.566
		c-0.16-2.981,0.374-5.867,1.584-8.575l0.635-1.42l-1.343,0.784c-6.38,3.722-10.099,10.611-9.704,17.98
		c0.579,10.786,9.823,19.09,20.609,18.512c7.369-0.396,13.822-4.829,16.84-11.569l0.637-1.42L41.255,29.797z"/>
	<path display="none" fill="#F7C883" d="M22.351,20.64l8.366,8.815l7.667-0.438l2.791,3.35l-7.573,2.012c0,0-0.334-0.445,1.33,1.4
		c1.569,1.742,0.256,2.154-1.058,1.006s-1.332-1.402-1.332-1.402l-3.261,7.166l-2.643-4.197l1.732-5.713l-8.843-9.318l-8.143,17.996
		l-2.506-2.17l3.116-23.999c0,0-6.339-7.15-7.063-8.855c-0.727-1.707-0.498-2.88,1.765-1.676c2.261,1.205,8.714,7.769,8.714,7.769
		L37.33,11.69l3.816,3.079L22.351,20.64z"/>
	
		<linearGradient id="SVGID_1_" gradientUnits="userSpaceOnUse" x1="306.2617" y1="-332.4512" x2="306.2617" y2="-370.4262" gradientTransform="matrix(1 0 0 -1 -283.5 -328.5)">
		<stop  offset="0" style="stop-color:#6E260D"/>
		<stop  offset="1" style="stop-color:#2B0D0E"/>
	</linearGradient>
	<path fill="url(#SVGID_1_)" d="M40.246,30.114c-2.639,1.354-5.491,2.042-8.479,2.042c-10.25,0-18.587-8.34-18.587-18.588
		c0-2.986,0.687-5.838,2.042-8.478l0.71-1.384l-1.383,0.71C7.978,7.792,3.896,14.473,3.896,21.853
		c0,10.801,8.787,19.588,19.588,19.588c7.379,0,14.061-4.082,17.435-10.652l0.711-1.385L40.246,30.114z"/>
	
		<linearGradient id="SVGID_2_" gradientUnits="userSpaceOnUse" x1="305.9346" y1="-332.5747" x2="305.9346" y2="-371.0469" gradientTransform="matrix(1 0 0 -1 -283.5 -328.5)">
		<stop  offset="0" style="stop-color:#6E260D"/>
		<stop  offset="1" style="stop-color:#2B0D0E"/>
	</linearGradient>
	<path display="none" fill="url(#SVGID_2_)" d="M21.917,20.205l8.366,8.814l7.667-0.438l2.791,3.35l-7.573,2.012
		c0,0-0.335-0.445,1.329,1.4c1.569,1.741,0.256,2.153-1.058,1.006c-1.313-1.148-1.332-1.401-1.332-1.401l-3.26,7.165l-2.643-4.196
		l1.732-5.714l-8.844-9.318l-8.143,17.996l-2.506-2.17l3.116-23.998c0,0-6.339-7.15-7.063-8.855C3.772,4.15,4,2.978,6.263,4.182
		c2.261,1.205,8.714,7.769,8.714,7.769l21.919-0.696l3.816,3.079L21.917,20.205z"/>
	<path display="none" fill="#F7C883" d="M38.607,14.208c-0.26-2.254-0.221-4.809-0.976-6.475c-0.784-1.74-3.394-2.991-5.588-3.548
		c-2.492-0.633-5.496-1.165-7.981-1.242c-0.739,0-1.479,0-2.217,0C16.994,3.586,11.36,3.779,8.807,6.757
		c-1.369,1.597-1.32,5.205-1.686,7.983c-0.297,2.254-0.737,4.63-0.887,6.918c-0.366,5.589,0.276,11.49,0,16.765
		c0.917,0.06,2.069-0.116,2.838,0.088c-0.001,1.156-0.029,2.337,0.089,3.371c0.25,2.478,4.884,2.265,4.612-0.532
		c0-0.945,0-1.892,0-2.839c5.889-0.09,12.616-0.262,18.271,0.091c0,0.944,0,1.891,0,2.838c-0.129,2.688,4.312,2.885,4.61,0.442
		c0.062-1.063-0.116-2.364,0.091-3.28c0-0.029,0-0.062,0-0.091c0.739-0.204,1.86-0.028,2.75-0.088c0-5.766,0-11.53,0-17.297
		C39.35,18.87,38.896,16.683,38.607,14.208z M15.846,5.814H29.83c0.67,0,1.213,0.542,1.213,1.212S30.5,8.238,29.83,8.238H15.846
		c-0.669,0-1.212-0.542-1.212-1.212S15.177,5.814,15.846,5.814z M11.478,33.721c-1.556,0-2.818-1.262-2.818-2.818
		c0-1.555,1.262-2.815,2.818-2.815s2.817,1.263,2.817,2.815C14.295,32.459,13.034,33.721,11.478,33.721z M10.314,22.635
		c-0.128-0.049-0.458,0.103-0.443-0.089c-1.32-0.646-0.384-3.959-0.089-6.208c0.145-1.102,0.287-2.138,0.444-3.193
		c0.218-1.469,0.32-3,1.685-3.016c-0.014-0.192,0.315-0.04,0.444-0.089c6.83-0.148,14.28-0.148,21.11,0
		c0.127,0.049,0.457-0.104,0.441,0.089c1.955,0.301,1.785,4.088,2.041,6.12c0.289,2.286,1.41,5.493,0,6.297
		c0.016,0.192-0.314,0.041-0.443,0.088C27.314,22.783,18.505,22.783,10.314,22.635z M34.596,33.721
		c-1.555,0-2.816-1.262-2.816-2.818c0-1.555,1.263-2.815,2.816-2.815c1.557,0,2.818,1.263,2.818,2.815
		C37.414,32.459,36.152,33.721,34.596,33.721z"/>
	
		<linearGradient id="SVGID_3_" gradientUnits="userSpaceOnUse" x1="305.9336" y1="-332.5737" x2="305.9336" y2="-369.1801" gradientTransform="matrix(1 0 0 -1 -283.5 -328.5)">
		<stop  offset="0" style="stop-color:#6E260D"/>
		<stop  offset="1" style="stop-color:#2B0D0E"/>
	</linearGradient>
	<path display="none" fill="url(#SVGID_3_)" d="M38.234,13.836c-0.26-2.254-0.221-4.809-0.975-6.475
		c-0.785-1.74-3.393-2.991-5.588-3.548c-2.492-0.633-5.495-1.165-7.982-1.242c-0.739,0-1.478,0-2.217,0
		C16.621,3.214,10.987,3.407,8.435,6.385c-1.369,1.597-1.32,5.205-1.686,7.983c-0.297,2.254-0.737,4.63-0.887,6.918
		c-0.366,5.588,0.276,11.491,0,16.764c0.917,0.06,2.069-0.116,2.838,0.089c-0.001,1.155-0.029,2.336,0.089,3.37
		c0.25,2.478,4.884,2.265,4.612-0.532c0-0.944,0-1.892,0-2.838c5.889-0.09,12.615-0.263,18.271,0.09c0,0.944,0,1.892,0,2.838
		c-0.129,2.688,4.312,2.885,4.611,0.442c0.06-1.063-0.117-2.364,0.09-3.28c0-0.029,0-0.061,0-0.09
		c0.738-0.205,1.861-0.029,2.75-0.089c0-5.766,0-11.53,0-17.296C38.979,18.497,38.523,16.311,38.234,13.836z M15.474,5.441h13.984
		c0.669,0,1.212,0.542,1.212,1.212c0,0.67-0.543,1.212-1.212,1.212H15.474c-0.669,0-1.212-0.542-1.212-1.212
		C14.262,5.983,14.804,5.441,15.474,5.441z M11.105,33.348c-1.556,0-2.818-1.262-2.818-2.818c0-1.555,1.262-2.815,2.818-2.815
		s2.817,1.263,2.817,2.815C13.922,32.086,12.662,33.348,11.105,33.348z M9.942,22.263c-0.128-0.049-0.458,0.103-0.443-0.089
		c-1.32-0.646-0.384-3.959-0.089-6.208c0.145-1.102,0.287-2.138,0.444-3.193c0.218-1.469,0.32-3,1.685-3.016
		c-0.014-0.192,0.315-0.04,0.444-0.089c6.83-0.148,14.279-0.148,21.109,0c0.129,0.049,0.458-0.104,0.442,0.089
		c1.955,0.301,1.784,4.088,2.041,6.12c0.289,2.286,1.409,5.493,0,6.297c0.016,0.192-0.313,0.041-0.443,0.088
		C26.941,22.41,18.133,22.41,9.942,22.263z M34.225,33.348c-1.557,0-2.817-1.262-2.817-2.818c0-1.555,1.262-2.815,2.817-2.815
		c1.555,0,2.816,1.263,2.816,2.815C37.041,32.086,35.779,33.348,34.225,33.348z"/>
</g>
</svg>
