<?xml version="1.0" encoding="utf-8"?>
<!-- Generator: Adobe Illustrator 15.0.0, SVG Export Plug-In . SVG Version: 6.00 Build 0)  -->
<!DOCTYPE svg PUBLIC "-//W3C//DTD SVG 1.1//EN" "http://www.w3.org/Graphics/SVG/1.1/DTD/svg11.dtd">
<svg version="1.1" id="Layer_1" xmlns="http://www.w3.org/2000/svg" xmlns:xlink="http://www.w3.org/1999/xlink" x="0px" y="0px"
	 width="35px" height="35px" viewBox="0 0 35 35" enable-background="new 0 0 35 35" xml:space="preserve">
<g>
	<g>
		<path fill="#FFEC42" d="M2.171,21.509c-0.071-0.339-0.219-0.643-0.442-0.91s-0.415-0.544-0.575-0.83
			c-0.054-0.071-0.076-0.165-0.067-0.281c0.009-0.115,0.018-0.231,0.027-0.348c0.009-0.116,0.004-0.228-0.013-0.335
			c-0.018-0.107-0.089-0.178-0.214-0.215l-0.241-1.204l-0.134-0.081v-0.375c0-0.482,0.059-0.941,0.174-1.379
			s0.183-0.906,0.201-1.406c0.143-0.036,0.223-0.161,0.241-0.375c0.018-0.214,0.044-0.393,0.08-0.536
			c0.66-1.106,1.459-2.119,2.396-3.039S5.527,8.452,6.562,7.72c0.071-0.053,0.214-0.107,0.429-0.161
			c0.214-0.053,0.441-0.111,0.683-0.174c0.241-0.062,0.455-0.125,0.643-0.188c0.188-0.062,0.29-0.121,0.308-0.174h2.517
			c0.089,0.143,0.223,0.25,0.402,0.321c0.178,0.071,0.365,0.125,0.562,0.161c0.196,0.036,0.388,0.076,0.576,0.12
			c0.188,0.045,0.353,0.121,0.496,0.228c0.589,0.447,1.182,0.964,1.78,1.553s1.165,1.196,1.7,1.821
			c0.054,0.089,0.098,0.134,0.134,0.134c0.464,0.339,0.817,0.732,1.058,1.178c0.241,0.446,0.459,0.91,0.656,1.392
			c0.018,0.054,0.035,0.089,0.054,0.107c0.054,0.464,0.147,0.906,0.281,1.326s0.2,0.861,0.2,1.325c0,1.161-0.29,2.271-0.87,3.334
			c-0.58,1.062-1.343,1.985-2.289,2.771c-0.018,0-0.179,0.099-0.482,0.295c-0.304,0.196-0.647,0.42-1.031,0.669
			c-0.384,0.251-0.768,0.487-1.151,0.71c-0.384,0.224-0.674,0.361-0.87,0.415c-0.464,0.196-0.902,0.366-1.312,0.509
			c-0.411,0.143-0.937,0.214-1.58,0.214c-0.643,0-1.308-0.129-1.995-0.388s-1.356-0.59-2.008-0.991
			c-0.652-0.401-1.263-0.844-1.834-1.325C3.045,22.419,2.563,21.955,2.171,21.509z M4.741,17.064
			c0.018,0.036,0.062,0.094,0.134,0.174c0.071,0.081,0.116,0.13,0.134,0.147c0.036,0.125,0.107,0.272,0.214,0.442
			c0.107,0.17,0.169,0.272,0.187,0.308v0.188v0.322v0.348v0.188c0.036,0.232,0.116,0.411,0.241,0.535
			c0.125,0.125,0.272,0.232,0.442,0.321c0.169,0.09,0.343,0.17,0.522,0.241c0.178,0.071,0.33,0.17,0.455,0.295
			c0.071,0.089,0.178,0.156,0.321,0.2c0.143,0.045,0.299,0.09,0.469,0.134C8.03,20.951,8.2,20.987,8.37,21.014
			c0.169,0.026,0.316,0.067,0.441,0.12c0.018,0,0.062,0,0.134,0c0.071,0,0.151,0.005,0.241,0.014
			c0.089,0.01,0.178,0.014,0.268,0.014s0.161,0,0.214,0c0.196,0,0.522-0.049,0.978-0.147c0.455-0.098,0.919-0.231,1.392-0.401
			c0.473-0.17,0.897-0.361,1.272-0.576c0.375-0.214,0.589-0.437,0.643-0.669c0-0.036,0.004-0.116,0.013-0.241
			c0.009-0.125,0.018-0.263,0.027-0.415c0.009-0.151,0.018-0.294,0.027-0.428c0.009-0.134,0.013-0.228,0.013-0.281
			c0.178-0.089,0.272-0.228,0.281-0.415c0.009-0.188,0.094-0.316,0.254-0.388c0.107-0.339,0.169-0.616,0.188-0.83
			c0.018-0.214,0.027-0.455,0.027-0.723v-0.669c-0.25-0.357-0.46-0.683-0.629-0.978c-0.17-0.294-0.348-0.562-0.536-0.803
			c-0.187-0.241-0.406-0.464-0.656-0.669c-0.25-0.205-0.571-0.397-0.964-0.576c-0.107-0.053-0.174-0.098-0.201-0.134
			c-0.027-0.036-0.045-0.076-0.054-0.121c-0.009-0.044-0.018-0.089-0.027-0.134c-0.009-0.044-0.04-0.111-0.094-0.201
			c-0.054-0.071-0.138-0.121-0.254-0.147s-0.241-0.053-0.375-0.08c-0.134-0.027-0.259-0.062-0.375-0.107
			c-0.116-0.044-0.21-0.111-0.281-0.201H8.329c-0.036,0.143-0.111,0.232-0.228,0.268s-0.201,0.125-0.254,0.268
			c-0.036,0.036-0.089,0.134-0.161,0.294s-0.125,0.259-0.161,0.294c-0.232-0.053-0.513,0.063-0.843,0.348
			c-0.331,0.286-0.652,0.625-0.964,1.018c-0.312,0.393-0.58,0.781-0.803,1.165c-0.224,0.384-0.335,0.647-0.335,0.79
			c0,0.25,0.044,0.473,0.134,0.669c0.089,0.196,0.134,0.393,0.134,0.589v0.321C4.777,16.975,4.741,17.047,4.741,17.064z
			 M13.417,7.854c0.036,0,0.054,0.045,0.054,0.134c0,0.071-0.018,0.107-0.054,0.107c-0.089,0-0.134-0.036-0.134-0.107
			C13.283,7.898,13.327,7.854,13.417,7.854z"/>
		<path fill="#FFEC42" d="M19.039,26.302c0-0.339,0.026-0.71,0.08-1.111s0.09-0.763,0.107-1.084c0.018-0.393,0.071-0.781,0.16-1.165
			c0.09-0.384,0.192-0.768,0.309-1.151c0.115-0.384,0.231-0.759,0.348-1.124c0.116-0.366,0.21-0.736,0.281-1.111
			c0.054-0.215,0.17-0.589,0.348-1.125c0.179-0.535,0.371-1.102,0.576-1.7c0.205-0.598,0.393-1.16,0.562-1.687
			c0.169-0.526,0.281-0.888,0.334-1.084c-0.053-0.411-0.022-0.87,0.094-1.379s0.255-1.031,0.415-1.566
			c0.161-0.536,0.312-1.066,0.455-1.593c0.144-0.526,0.215-1.004,0.215-1.432l-3.749,0.401c-0.053,0.018-0.08-0.062-0.08-0.241
			c0-0.178,0-0.384,0-0.616c0-0.231-0.014-0.446-0.04-0.643c-0.026-0.196-0.103-0.303-0.228-0.321l8.06-1.312h0.268
			c0.089,0,0.196-0.013,0.321-0.04c0.124-0.027,0.241-0.044,0.348-0.053c0.107-0.009,0.188-0.004,0.241,0.013
			c0.054,0.018,0.062,0.062,0.026,0.134c-0.25,0.536-0.499,1.151-0.749,1.848c-0.25,0.696-0.465,1.312-0.643,1.847
			c-0.019,0.09-0.059,0.264-0.121,0.522s-0.134,0.535-0.214,0.83c-0.08,0.294-0.161,0.576-0.241,0.843s-0.139,0.455-0.174,0.562
			v0.107v0.134c0.214-0.375,0.5-0.866,0.856-1.473c0.357-0.606,0.741-1.223,1.151-1.848c0.411-0.625,0.821-1.205,1.232-1.74
			c0.41-0.536,0.794-0.937,1.151-1.205c0.214,0.161,0.428,0.25,0.643,0.268c0.214,0.018,0.415,0.009,0.602-0.027
			c0.188-0.036,0.357-0.081,0.509-0.134c0.151-0.054,0.272-0.081,0.362-0.081h0.321c0.303,0,0.589,0.107,0.856,0.321
			c0.268,0.214,0.401,0.473,0.401,0.777c0,0.25-0.116,0.513-0.348,0.79c-0.232,0.277-0.491,0.576-0.776,0.897
			c-0.286,0.321-0.559,0.661-0.817,1.018c-0.259,0.357-0.415,0.75-0.468,1.178l-3.695,5.328l1.553,7.123
			c0.018,0.035,0.031,0.106,0.04,0.214s0.018,0.219,0.027,0.335c0.009,0.116,0.009,0.228,0,0.334
			c-0.01,0.107-0.031,0.17-0.067,0.188l-0.83,0.75c0.125,0.16,0.103,0.344-0.066,0.549c-0.17,0.205-0.385,0.37-0.643,0.495
			c-0.26,0.125-0.531,0.188-0.817,0.188c-0.268,0-0.446-0.134-0.535-0.401c-0.179-0.429-0.348-0.808-0.509-1.138
			c-0.16-0.33-0.304-0.634-0.429-0.911c-0.125-0.276-0.231-0.549-0.321-0.816c-0.089-0.268-0.16-0.553-0.214-0.856
			c0-0.054-0.04-0.21-0.12-0.469c-0.081-0.259-0.17-0.535-0.268-0.83c-0.099-0.294-0.188-0.566-0.269-0.816
			c-0.08-0.25-0.129-0.401-0.146-0.455c0.035-0.339,0.049-0.594,0.04-0.764c-0.01-0.169-0.031-0.298-0.067-0.388
			s-0.071-0.156-0.107-0.201c-0.035-0.044-0.053-0.094-0.053-0.147c-0.09,0.642-0.224,1.29-0.402,1.941
			c-0.179,0.652-0.374,1.299-0.589,1.941c-0.214,0.643-0.42,1.285-0.615,1.928c-0.197,0.643-0.357,1.294-0.482,1.955
			c-0.429-0.054-0.732-0.023-0.91,0.093c-0.179,0.116-0.317,0.264-0.415,0.442c-0.099,0.178-0.188,0.344-0.268,0.495
			c-0.081,0.151-0.228,0.228-0.442,0.228c-0.357,0-0.674-0.026-0.95-0.08C19.177,26.944,19.039,26.712,19.039,26.302z"/>
	</g>
	<path fill="#FFEC42" d="M33.889,29.697c0.093,0.215,0.184,0.671,0.003,0.832c-0.554,0.468-0.899,0.112-1.411-0.005
		c-4.155-0.97-8.396-0.832-12.384-0.526c2.141,0.317,5.085-0.001,6.984,0.249c-3.75,0.117-7.612-0.079-11.451,0.251
		c-4.605,0.396-8.35,1.583-12.33,2.646c-1.004,0.269-2.456,0.785-2.321-0.856c2.194-0.638,4.477-1.111,6.668-1.756
		c-0.342-0.131-0.827,0.069-1.631,0.18c-0.624,0.086-1.425,0.183-2.157,0.273c-0.914,0.114-2.204,0.476-2.51-0.498
		c0.356-0.45,0.782,0.13,1.015,0.219c3.777-0.382,6.847-0.636,10.489-1.2c-3.555-0.137-7.542,1.067-11.896-0.214
		C0.93,28.927,0.51,28.49,0.794,28.164c0.565-0.306,1.125,0.134,1.67,0.246c1.251,0.262,2.86,0.114,4.385,0.059
		c3.148-0.112,5.087-0.235,8.172-0.395c0.683-0.035,1.366-0.064,2.013-0.065c0.921-0.004,1.688,0,2.494-0.007
		c1.319-0.013,3.02,0.089,4.11,0.143c0.6,0.029,1.165,0.246,1.745,0.271c0.726,0.031,1.644-0.487,2.411-0.28
		c0.257,0.069,0.433,0.343,0.694,0.455C30.115,29.285,32.195,28.637,33.889,29.697z M17.63,28.519
		c-0.223-0.007,0.161-0.343-0.062-0.352c-0.043,0.168-0.356,0.432-0.235,0.513C17.364,28.497,17.579,28.658,17.63,28.519z"/>
</g>
</svg>
