<?xml version="1.0" encoding="utf-8"?>
<!-- Generator: Adobe Illustrator 15.0.0, SVG Export Plug-In . SVG Version: 6.00 Build 0)  -->
<!DOCTYPE svg PUBLIC "-//W3C//DTD SVG 1.1//EN" "http://www.w3.org/Graphics/SVG/1.1/DTD/svg11.dtd">
<svg version="1.1" id="Layer_1" xmlns="http://www.w3.org/2000/svg" xmlns:xlink="http://www.w3.org/1999/xlink" x="0px" y="0px"
	 width="45px" height="45px" viewBox="0 0 45 45" enable-background="new 0 0 45 45" xml:space="preserve">
<g id="yDHJDw_1_">
	<path display="none" stroke="#FFFFFF" stroke-miterlimit="10" d="M31.769,32.656c-10.542,0-19.088-8.546-19.088-19.088
		c0-3.136,0.757-6.096,2.097-8.707C8.614,8.027,4.396,14.447,4.396,21.853c0,10.542,8.546,19.088,19.088,19.088
		c7.405,0,13.825-4.218,16.99-10.381C37.864,31.899,34.904,32.656,31.769,32.656z"/>
	<path display="none" fill-rule="evenodd" clip-rule="evenodd" d="M44.39,15.575c-0.021-0.902-0.223-4.778-2.099-5.496
		C38.43,8.601,28.889,7.422,22.436,7.422c-6.455,0-15.996,1.179-19.857,2.657c-1.878,0.719-2.077,4.6-2.098,5.499
		c-0.032,0.263-0.029,0.521,0.016,0.752l0.367,1.84c0.194,1.008,1.168,1.666,2.176,1.472l8.467-1.641
		c1.006-0.194,1.665-1.169,1.471-2.176l-0.439-2.272c0.78-0.108,1.563-0.212,2.339-0.306l-0.253,3.676
		c0,0-12.627,6.732-12.627,9.234s0,12.224,0,12.224h20.439h20.439c0,0,0-9.804,0-12.224s-12.629-9.234-12.629-9.234l-0.253-3.676
		c0.776,0.094,1.56,0.197,2.34,0.306l-0.439,2.272c-0.195,1.007,0.464,1.981,1.47,2.176l8.467,1.641
		c1.008,0.194,1.982-0.464,2.177-1.472l0.367-1.84C44.418,16.099,44.422,15.839,44.39,15.575z M22.436,12.683
		c0.785,0,3.794,0.141,4.686,0.254c0-0.016-0.292,3.633-0.299,3.622h-4.387h-4.389l-0.271-3.624
		C19.477,12.777,21.073,12.683,22.436,12.683z M22.436,33.368c-3.26,0-5.902-2.459-5.902-5.492c0-3.032,2.643-5.49,5.902-5.49
		c3.259,0,5.902,2.458,5.902,5.49C28.338,30.909,25.695,33.368,22.436,33.368z"/>
	<path display="none" fill-rule="evenodd" clip-rule="evenodd" d="M21.917,20.205l8.366,8.815l7.667-0.438l2.791,3.349l-7.573,2.012
		c0,0-0.335-0.445,1.329,1.401c1.57,1.741,0.256,2.153-1.057,1.005c-1.314-1.148-1.332-1.401-1.332-1.401l-3.261,7.165l-2.642-4.196
		l1.732-5.714l-8.843-9.318l-8.143,17.996l-2.506-2.17l3.116-23.998c0,0-6.339-7.15-7.063-8.855C3.772,4.15,4,2.978,6.263,4.182
		c2.261,1.205,8.714,7.769,8.714,7.769l21.919-0.696l3.817,3.079L21.917,20.205z"/>
	<path fill-rule="evenodd" clip-rule="evenodd" fill="#F7C883" d="M38.607,14.208c-0.26-2.254-0.221-4.809-0.975-6.475
		c-0.785-1.74-3.393-2.991-5.588-3.548c-2.492-0.633-5.496-1.165-7.982-1.242c-0.739,0-1.478,0-2.217,0
		C16.994,3.586,11.36,3.779,8.807,6.757c-1.369,1.597-1.32,5.205-1.686,7.983c-0.297,2.254-0.737,4.63-0.887,6.918
		c-0.366,5.589,0.276,11.491,0,16.765c0.917,0.059,2.069-0.117,2.838,0.088c-0.001,1.156-0.029,2.336,0.089,3.371
		c0.25,2.477,4.884,2.264,4.612-0.533c0-0.945,0-1.891,0-2.838c5.889-0.09,12.615-0.262,18.271,0.09c0,0.945,0,1.891,0,2.838
		c-0.129,2.688,4.312,2.885,4.611,0.443c0.061-1.064-0.117-2.365,0.09-3.281c0-0.029,0-0.061,0-0.09
		c0.74-0.205,1.861-0.029,2.75-0.088c0-5.766,0-11.531,0-17.297C39.35,18.87,38.896,16.683,38.607,14.208z M15.846,5.814H29.83
		c0.67,0,1.213,0.542,1.213,1.212S30.5,8.238,29.83,8.238H15.846c-0.669,0-1.212-0.542-1.212-1.212S15.177,5.814,15.846,5.814z
		 M11.478,33.721c-1.556,0-2.818-1.262-2.818-2.818c0-1.555,1.262-2.816,2.818-2.816s2.817,1.262,2.817,2.816
		C14.295,32.459,13.034,33.721,11.478,33.721z M10.314,22.635c-0.128-0.049-0.458,0.103-0.443-0.089
		c-1.32-0.646-0.384-3.959-0.089-6.208c0.145-1.102,0.287-2.138,0.444-3.193c0.218-1.469,0.32-3,1.685-3.016
		c-0.014-0.192,0.315-0.04,0.444-0.089c6.83-0.148,14.28-0.148,21.11,0c0.127,0.049,0.457-0.104,0.441,0.089
		c1.955,0.301,1.785,4.088,2.041,6.12c0.289,2.286,1.41,5.493,0,6.297c0.016,0.192-0.314,0.041-0.443,0.088
		C27.314,22.783,18.505,22.783,10.314,22.635z M34.596,33.721c-1.555,0-2.816-1.262-2.816-2.818c0-1.555,1.262-2.816,2.816-2.816
		c1.557,0,2.818,1.262,2.818,2.816C37.414,32.459,36.152,33.721,34.596,33.721z"/>
	<linearGradient id="SVGID_1_" gradientUnits="userSpaceOnUse" x1="22.4351" y1="4.0737" x2="22.4351" y2="40.6792">
		<stop  offset="0" style="stop-color:#6E260D"/>
		<stop  offset="1" style="stop-color:#2B0D0E"/>
	</linearGradient>
	<path fill-rule="evenodd" clip-rule="evenodd" fill="url(#SVGID_1_)" d="M38.235,13.836c-0.261-2.254-0.222-4.809-0.975-6.475
		c-0.786-1.74-3.393-2.991-5.588-3.548C29.18,3.18,26.177,2.648,23.69,2.571c-0.74,0-1.478,0-2.218,0
		C16.621,3.214,10.987,3.407,8.435,6.385c-1.369,1.597-1.32,5.205-1.686,7.983c-0.297,2.254-0.737,4.63-0.887,6.918
		c-0.366,5.588,0.276,11.492,0,16.764c0.917,0.059,2.069-0.117,2.838,0.089c-0.001,1.155-0.029,2.335,0.089,3.37
		c0.25,2.477,4.884,2.264,4.612-0.532c0-0.945,0-1.892,0-2.838c5.889-0.09,12.614-0.263,18.271,0.089c0,0.945,0,1.892,0,2.839
		c-0.129,2.688,4.312,2.884,4.611,0.442c0.06-1.063-0.117-2.364,0.09-3.281c0-0.029,0-0.06,0-0.089
		c0.739-0.206,1.861-0.03,2.75-0.089c0-5.766,0-11.531,0-17.296C38.978,18.497,38.523,16.311,38.235,13.836z M15.474,5.441h13.984
		c0.669,0,1.212,0.542,1.212,1.212s-0.543,1.212-1.212,1.212H15.474c-0.669,0-1.212-0.542-1.212-1.212S14.804,5.441,15.474,5.441z
		 M11.105,33.348c-1.556,0-2.818-1.262-2.818-2.818c0-1.555,1.262-2.816,2.818-2.816s2.817,1.262,2.817,2.816
		C13.922,32.086,12.662,33.348,11.105,33.348z M9.942,22.263c-0.128-0.049-0.458,0.103-0.443-0.089
		c-1.32-0.646-0.384-3.959-0.089-6.208c0.145-1.102,0.287-2.138,0.444-3.193c0.218-1.469,0.32-3,1.685-3.016
		c-0.014-0.192,0.315-0.04,0.444-0.089c6.83-0.148,14.279-0.148,21.109,0c0.128,0.049,0.458-0.104,0.442,0.089
		c1.955,0.301,1.785,4.088,2.041,6.12c0.289,2.286,1.409,5.493,0,6.297c0.016,0.192-0.314,0.041-0.443,0.088
		C26.941,22.41,18.133,22.41,9.942,22.263z M34.224,33.348c-1.556,0-2.817-1.262-2.817-2.818c0-1.555,1.262-2.816,2.817-2.816
		s2.817,1.262,2.817,2.816C37.041,32.086,35.779,33.348,34.224,33.348z"/>
</g>
</svg>
